<svg xmlns="http://www.w3.org/2000/svg" viewBox="0 0 64 64" fill="none">
  <circle cx="32" cy="32" r="30" fill="url(#g)" opacity="0.15"/>
  <path d="M32 8v48M24 16c0-4 4-8 8-8s8 4 8 8-4 8-8 8-8-4-8-8zM20 28c0-3 3-6 6-6h12c3 0 6 3 6 6s-3 6-6 6H26c-3 0-6-3-6-6zM24 40h16M28 48h8" stroke="url(#g)" stroke-width="2.5" stroke-linecap="round" stroke-linejoin="round"/>
  <defs><linearGradient id="g" x1="0" y1="0" x2="64" y2="64"><stop stop-color="#0D9488"/><stop offset="1" stop-color="#06B6D4"/></linearGradient></defs>
</svg>
